<svg width="262" height="259" viewBox="0 0 262 259" fill="none" xmlns="http://www.w3.org/2000/svg">
<path fill-rule="evenodd" clip-rule="evenodd" d="M76.9551 1.58988C68.2017 4.869 63.3769 9.41506 58.0561 19.395C53.7467 27.4762 50.844 30.522 41.7276 36.5261C28.4784 45.2521 25.19 50.7978 20.8724 71.7054C19.2064 79.7801 17.832 86.4518 17.8207 86.5328C17.8093 86.6138 14.9472 89.5883 11.461 93.1445C0.717436 104.1 -2.87565 124.238 2.40296 143.9C3.71897 148.8 4.80808 158.278 4.82428 164.961C4.83887 171.644 5.59573 179.785 6.50333 183.055C8.61834 190.669 16.8645 197.875 27.5108 201.409C34.71 203.8 36.9449 205.65 43.2997 214.48C49.306 222.829 52.0855 225.239 58.0399 227.266C72.3799 232.151 87.4896 229.294 87.4896 221.698C87.4896 218.937 86.4459 218.754 75.4397 219.587C61.2538 220.658 57.1048 218.743 48.3643 207.084C44.8734 202.428 39.6823 198.187 33.9952 195.346C29.0991 192.902 22.7233 188.689 19.8255 185.989C15.0314 181.52 14.542 180.174 14.3734 170.994C14.1384 158.153 13.5453 153.134 11.0753 143.099C9.97811 138.639 9.13858 129.696 9.21152 123.227C9.35576 110.431 11.0964 106.444 20.3344 97.7327C25.7313 92.6455 27.7231 87.1841 30.5626 69.7014C32.7489 56.2284 37.3452 49.2003 47.8409 43.2788C57.9167 37.5938 59.4159 35.9769 64.7998 24.9893C71.3264 11.6686 84.561 6.97354 105.722 10.4698L111.8 11.4742V78.9231V146.374L106.128 154.793C100.928 162.512 99.0095 169.457 101.415 171.861C103.437 173.882 112.448 163.73 116.884 154.43L121.521 144.71L121.523 78.6493L121.524 12.5889L125.681 11.0093C131.289 8.8788 143.61 9.01003 147.968 11.2474C152.577 13.616 158.431 20.2553 159.752 24.6134C161.402 30.0538 168.434 38.5918 171.265 38.5918C175.993 38.5918 188.368 45.8062 192.098 50.7346C195.477 55.2013 197.927 62.2326 204.87 87.372C206.535 93.4021 209.501 98.7809 213.682 103.353C223.435 114.02 227.095 132.162 220.664 137.978C216.823 141.453 215.04 141.359 211.538 137.49C209.959 135.747 205.574 133.858 201.791 133.291C196.122 132.44 194.516 131.376 192.658 127.24C191.419 124.479 189.586 121.965 188.584 121.652C186.354 120.957 184.182 128.291 186.394 129.048C190.328 130.394 187.211 132.486 178.654 134.242C155.251 139.047 144.919 145.539 138.01 159.775C134.125 167.782 132.829 169.008 125.395 171.72C107.705 178.172 100.353 197.041 109.035 213.715C115.395 225.93 135.603 232.535 145.473 225.623C152.183 220.927 150.062 218.304 139.757 218.551C127.899 218.838 122.351 216.617 118.289 209.96C114.165 203.196 114.165 194.771 118.289 188.007C121.905 182.079 127.492 179.369 136.342 179.246C142.089 179.168 142.316 178.936 143.336 172.14C144.118 166.926 146.3 162.993 151.805 156.87C162.325 145.173 166.303 143.543 185.774 142.945C204.917 142.357 208.752 144.096 211.967 154.822C214.739 164.073 219.533 167.621 230.714 168.705C249.055 170.484 257.616 185.917 249.752 203.034C244.675 214.09 234.678 220.045 221.199 220.045C215.829 220.045 213.522 220.776 212.779 222.71C211.128 227.013 216.896 230.075 224.439 228.898C238.675 226.673 243.472 224.596 250.433 217.638C264.202 203.873 265.859 181.504 253.989 169.638C248.253 163.903 236.829 158.494 230.382 158.456C228.004 158.442 225.05 157.792 223.815 157.01C220.795 155.098 222.674 147.932 227.785 141.858C235.552 132.632 232.035 110.569 220.755 97.7586C215.497 91.7884 213.645 87.8013 210.768 76.2564C203.977 49.014 197.013 38.5675 180.643 31.0761C173.849 27.9671 171.056 25.485 167.604 19.489C161.635 9.11858 159.053 6.38706 151.655 2.61218C146.256 -0.142027 143.501 -0.457945 133.017 0.468763C117.059 1.87827 107.123 1.94793 93.1621 0.744181C86.2546 0.149597 79.9161 0.480098 76.9551 1.58988ZM72.8758 52.3952C71.1854 54.4333 71.1984 56.1069 72.9471 61.4047C76.0913 70.9278 73.8304 75.7007 63.5552 81.222C58.8924 83.73 55.0757 86.5425 55.0757 87.4708C55.0757 88.4008 56.1226 88.7604 57.4014 88.2695C58.6817 87.7787 59.988 88.1561 60.3056 89.1088C61.3737 92.3101 71.2551 88.7216 74.8838 83.8142C78.2776 79.226 83.151 77.6302 84.9386 80.5221C85.4249 81.3063 87.6549 82.2994 89.8964 82.7271C95.5623 83.8093 95.363 78.6817 89.5155 72.987C83.0408 66.6814 79.4088 60.9495 79.3975 57.0158C79.3813 51.9643 75.511 49.2214 72.8758 52.3952ZM163.849 56.9996C162.708 58.3735 162.233 60.9414 162.792 62.7073C164.152 66.9893 156.314 75.7314 148.981 78.1098C145.935 79.0964 143.198 81.1799 142.9 82.7401C142.435 85.1622 143.652 85.5753 151.245 85.5753C159.131 85.5753 160.594 86.1229 164.225 90.4356C168.249 95.2166 175.007 97.0895 175.007 93.4231C175.007 92.3944 173.062 89.0018 170.685 85.8863C166.638 80.5837 166.484 79.772 168.254 73.1554C170.68 64.086 170.636 60.9446 168.033 57.3868C166.145 54.8043 165.705 54.7638 163.849 56.9996ZM34.9903 118.921C32.3956 125.678 34.0195 129.333 42.2365 135.234C49.0045 140.094 50.2638 141.748 49.3319 144.548C42.8572 163.992 52.1795 178.922 69.9731 177.609C77.3181 177.067 80.8253 173.062 73.9536 173.062C62.7529 173.062 54.6948 164.342 56.168 153.82C57.1777 146.612 66.0624 137.938 73.9503 136.458C77.9956 135.699 79.3861 134.598 79.3861 132.152C79.3861 129.169 78.6536 128.954 71.4058 129.813C67.017 130.331 61.9636 131.669 60.1776 132.786C55.2604 135.854 45.6221 130.291 42.2689 122.449C39.5364 116.056 36.6305 114.647 34.9903 118.921ZM183.416 190.055C181.67 192.271 177.8 198.796 174.814 204.55C170.847 212.201 167.727 215.946 163.207 218.487C154.001 223.658 157.413 226.526 172.774 226.526C180.493 226.526 184.732 227.167 184.732 228.334C184.732 229.329 182.273 233.52 179.268 237.649C170.583 249.586 167.787 255.843 170.398 257.498C174.048 259.811 174.639 259.323 182.9 247.182C187.295 240.721 193.493 232.885 196.674 229.766C199.854 226.647 202.48 222.869 202.507 221.369C202.564 218.399 197.161 215.945 194.365 217.672C193.407 218.263 190.119 218.276 187.057 217.703C179.873 216.355 179.741 212.437 186.459 199.85C192.971 187.654 190.799 180.67 183.416 190.055Z" fill="#37B38A"/>
</svg>
