<svg width="265" height="253" viewBox="0 0 265 253" fill="none" xmlns="http://www.w3.org/2000/svg">
<path fill-rule="evenodd" clip-rule="evenodd" d="M108.847 1.43051C82.6483 5.83885 60.8078 17.5799 38.1083 39.4531C17.4865 59.3271 4.56796 83.0165 1.02187 107.469C-0.973208 121.225 0.0867174 148.839 3.04125 160.102C6.80451 174.45 17.2451 194.803 26.2384 205.326C43.5863 225.626 74.3633 243.344 102.259 249.09C151.729 259.282 193.352 247.052 228.832 211.897C246.574 194.315 259.113 170.547 262.113 148.806C265.68 122.946 264.726 110.978 257.332 88.8619C243.658 47.9685 198.778 8.64328 157.729 1.58928C145.804 -0.460174 120.569 -0.5428 108.847 1.43051ZM138.509 11.5012C140.373 13.1181 140.744 17.8585 140.348 34.9929L139.854 56.4595H131.95C125.809 56.4595 123.866 55.8276 123.24 53.6243C122.798 52.0641 122.456 41.8995 122.48 31.035C122.524 12.1249 122.675 11.2501 126.012 10.5988C132.853 9.26217 136.206 9.50518 138.509 11.5012ZM177.104 18.8581C194.156 26.0887 219.448 44.3669 219.448 49.4573C219.448 51.4566 189.511 77.5211 187.216 77.5211C186.545 77.5211 183.13 75.0698 179.628 72.0742C173.767 67.0616 167.165 63.5524 153.426 58.1477C150.539 57.012 148.539 55.4988 148.982 54.7843C149.424 54.0698 149.857 44.8999 149.943 34.4064C150.031 23.9145 150.473 14.3591 150.928 13.1748C152.12 10.069 160.855 11.9661 177.104 18.8581ZM112.98 34.8179C112.808 46.9753 112.079 57.4267 111.359 58.044C110.639 58.6596 106.769 60.3932 102.758 61.895C98.7468 63.3969 91.6043 67.3451 86.8848 70.668L78.3033 76.711L66.6261 65.6537C60.2033 59.5718 52.9215 53.3878 50.4435 51.9102C47.967 50.4343 46.1486 48.1483 46.4031 46.8295C47.1907 42.7419 65.6586 28.9985 79.2579 22.3819C92.0808 16.1428 101.377 13.1958 109.241 12.8783L113.293 12.7146L112.98 34.8179ZM52.5779 68.7514C61.4091 76.3011 67.7055 80.5798 68.9 79.8427C70.0766 79.1153 70.4218 79.3259 69.7736 80.3725C69.1852 81.3251 69.6195 82.4333 70.7394 82.8334C72.2678 83.381 72.0522 84.7274 69.874 88.2382C66.4641 93.7304 59.581 107.887 58.3444 111.949C57.5729 114.478 54.9538 114.784 34.0306 114.784H10.5824L11.4916 108.708C14.229 90.4383 30.6207 56.4595 36.6951 56.4595C37.5233 56.4595 44.6705 61.9906 52.5779 68.7514ZM232.723 64.9651C238.788 73.0803 243.832 83.6403 248.007 96.9625C254.055 116.266 255.489 114.944 229.056 114.423L206.249 113.974L202.984 104.253C201.188 98.9066 198.624 93.3107 197.285 91.817C195.948 90.3249 195.1 88.0632 195.4 86.793C195.919 84.6042 225.597 59.7856 227.764 59.7273C228.328 59.7127 230.558 62.07 232.723 64.9651ZM211.345 61.9323C211.345 62.2676 210.068 63.5443 208.509 64.7675C205.938 66.7813 205.881 66.7246 207.896 64.1551C210.014 61.456 211.345 60.5989 211.345 61.9323ZM158.599 71.1119C171.312 77.4093 185.798 91.9628 191.149 103.811C194.984 112.3 195.731 116.109 195.689 126.935C195.622 143.954 193.37 151.309 184.559 163.274C171.613 180.852 148.621 192.007 128.689 190.377C111.871 189.001 102.722 185.768 91.0728 177.081C67.7185 159.664 59.8792 128.919 72.3715 103.733C76.7798 94.845 89.4877 80.5944 97.3222 75.7551C114.171 65.3442 142.611 63.1895 158.599 71.1119ZM97.6917 99.8415C92.6124 104.577 90.7988 107.73 89.666 113.794C86.9173 128.497 91.1959 137.039 111.61 157.613C123.15 169.243 128.031 173.108 131.18 173.108C134.308 173.108 139.716 168.888 152.458 156.502C161.855 147.369 170.926 137.19 172.617 133.885C181.346 116.812 168.756 93.7125 150.734 93.7287C143.925 93.7352 133.551 98.6895 133.551 101.935C133.551 102.915 130.712 101.466 127.24 98.7187C122.041 94.602 119.463 93.7223 112.591 93.7223C105.184 93.7223 103.52 94.406 97.6917 99.8415ZM124.464 107.999C130.192 113.136 131.088 113.151 138.52 108.222C150.204 100.475 160.55 102.707 165.268 113.995C167.991 120.509 166.503 126.455 159.662 136.395C153.927 144.727 135.114 161.767 131.65 161.767C127.963 161.767 105.174 139.917 100.44 131.842C95.6739 123.711 95.5248 116.211 99.9963 109.389C104.304 102.818 117.834 102.05 124.464 107.999ZM55.2261 130.964C55.3801 134.07 55.9263 138.809 56.44 141.495C56.9538 144.179 56.7982 145.487 56.0948 144.4C55.2213 143.048 47.9686 142.28 33.1166 141.969L11.417 141.516L10.2761 137.245C9.64887 134.896 9.50464 131.048 9.95519 128.694L10.7736 124.415L32.8605 124.866L54.9474 125.315L55.2261 130.964ZM253.186 131.39C253.682 142.42 253.551 142.477 228.266 141.968L205.732 141.516L206.261 134.228C206.551 130.22 207.128 126.392 207.541 125.723C207.956 125.052 218.325 124.505 230.586 124.505H252.877L253.186 131.39ZM60.6198 152.635C60.6198 153.744 62.777 158.052 65.4122 162.206L70.2046 169.761L53.2732 184.496L36.3402 199.231L32.2301 194.797C24.347 186.294 11.9989 160.567 11.9989 152.648C11.9989 151.005 17.3083 150.412 35.0938 150.065C60.085 149.579 60.6198 149.633 60.6198 152.635ZM249.24 154.477C248.658 164.316 241.017 182.137 233.148 192L229.639 196.399L223.328 190.236C219.857 186.847 212.641 180.749 207.293 176.685C201.945 172.62 197.269 169.064 196.901 168.779C195.572 167.752 200.614 154.423 203.112 152.367C205.006 150.806 211.366 150.384 227.552 150.747C248.263 151.211 249.421 151.41 249.24 154.477ZM203.857 188.556C211.774 195.208 218.884 200.65 219.659 200.65C223.028 200.65 220.563 205.59 214.432 211.127C198.379 225.624 171.991 238.454 157.862 238.632L150.569 238.723L150.369 217.661L150.168 196.6L155.651 196.308C160.956 196.028 180.786 184.352 185.399 178.795C186.517 177.45 187.888 176.374 188.448 176.405C189.008 176.436 195.942 181.904 203.857 188.556ZM89.0728 187.542C95.6156 191.916 103.186 195.983 105.896 196.577C108.607 197.172 111.218 198.296 111.701 199.077C112.182 199.856 112.738 209.277 112.934 220.014L113.293 239.536L107.134 239.535C103.748 239.533 99.0077 238.543 96.5994 237.335C94.1926 236.124 89.8491 234.684 86.9481 234.133C80.0115 232.814 57.8711 219.977 49.0707 212.169C42.2946 206.159 42.2006 205.941 45.5944 204.125C47.5116 203.1 55.0057 197.159 62.247 190.925C69.4883 184.69 75.809 179.589 76.2952 179.589C76.7798 179.589 82.53 183.167 89.0728 187.542ZM134.494 202.27H140.034V221.796V241.323L131.525 240.832L123.017 240.343L122.553 222.625C122.043 203.045 122.62 199.84 126.404 201.292C127.807 201.83 131.448 202.27 134.494 202.27Z" fill="#37B38A"/>
</svg>
