<svg width="255" height="300" viewBox="0 0 255 300" fill="none" xmlns="http://www.w3.org/2000/svg">
<path fill-rule="evenodd" clip-rule="evenodd" d="M151.406 0.456041C135.758 1.73756 125.073 6.47154 116.857 15.7645C113.315 19.7727 107.31 24.4257 103.516 26.1025C95.4626 29.6636 89.0642 38.4689 87.5342 48.094C86.6915 53.4048 87.4029 56.3745 91.4207 64.2952C94.1272 69.6287 96.3492 75.7041 96.3605 77.7941C96.3913 83.3252 102.036 90.3824 110.308 95.2282C116.785 99.0225 118.765 99.3838 129.246 98.6855C138.609 98.0602 144.635 98.8346 159.359 102.554C169.483 105.113 179.749 107.206 182.172 107.206C188.424 107.206 198.486 119.647 198.486 127.376C198.486 131.007 202.946 130.466 204.145 126.689C205.236 123.251 201.26 113.421 197.526 110.323C196.272 109.281 195.244 107.415 195.244 106.174C195.244 104.933 193.09 102.609 190.46 101.009L185.674 98.1007L197.482 91.8632C203.976 88.4318 209.343 84.8303 209.406 83.8598C209.91 76.2128 211.851 67.4188 213.135 66.9733C215.599 66.1179 214.947 59.2097 212.187 56.9205C210.809 55.7783 210.08 53.8082 210.565 52.5445C211.051 51.2792 211.897 45.382 212.445 39.4377C212.994 33.4935 213.96 28.0661 214.59 27.3776C215.223 26.689 218.326 27.2058 221.49 28.5262C231.621 32.7596 237.139 49.7255 231.765 60.117C229.339 64.8056 215.367 78.0436 212.843 78.0436C212.078 78.0436 211.451 79.1372 211.451 80.4738C211.451 84.1028 214.834 83.4402 223.115 78.1894C228.88 74.5344 231.723 71.0997 235.755 62.9117C238.616 57.1035 240.588 51.7523 240.139 51.02C239.69 50.2893 238.881 46.9 238.342 43.488C237.8 40.0761 236.671 35.9966 235.828 34.4235C233.815 30.6632 224.151 23.3597 217.529 20.5941C214.631 19.3839 210.375 16.91 208.069 15.0971C192.507 2.85868 175.556 -1.52213 151.406 0.456041ZM180.958 7.99446C188.359 9.41692 200.106 16.6832 200.106 19.8424C200.106 20.7092 198.249 22.1251 195.98 22.9887C192.855 24.1762 190.857 23.904 187.745 21.8659C184.828 19.9542 178.737 18.9578 166.713 18.4232L149.787 17.6714L136.162 24.3577C119.047 32.7564 113.997 31.6045 119.707 20.6039C122.24 15.7208 130.878 10.5429 141.761 7.38691C149.435 5.15925 167.673 5.44277 180.958 7.99446ZM177.956 28.7498C181.261 30.0184 181.447 33.9553 178.366 37.4045C166.728 50.4351 166.219 50.7899 160.801 49.6396C155.228 48.4553 149.865 44.6351 149.865 41.8485C149.865 40.9315 148.27 38.4819 146.32 36.4081C142.246 32.0727 143.234 30.4655 151.485 27.9965C157.112 26.3132 172.765 26.7587 177.956 28.7498ZM205.947 37.5292C206.281 44.0081 202.531 50.0803 201.076 45.4192C198.627 37.573 198.724 32.7078 201.359 31.2335C205.001 29.1953 205.558 29.96 205.947 37.5292ZM120.692 32.6802C120.692 33.5713 120.007 34.3003 119.167 34.3003C118.327 34.3003 117.191 33.5713 116.64 32.6802C116.089 31.7892 116.776 31.0601 118.165 31.0601C119.554 31.0601 120.692 31.7892 120.692 32.6802ZM105.044 36.8002C104.517 38.1741 105.234 43.096 106.639 47.736C110.252 59.6714 109.524 67.3589 104.714 68.0474C102.659 68.3423 99.7008 67.4302 98.1417 66.0191C96.5842 64.6095 94.8597 63.9032 94.3103 64.4524C93.7625 65 93.3379 64.0911 93.3687 62.4305C93.3979 60.7699 92.8987 56.6758 92.2585 53.3335C91.2926 48.2917 91.8258 46.1467 95.3816 40.7776C97.952 36.8925 100.937 34.3003 102.837 34.3003C105.025 34.3003 105.707 35.0731 105.044 36.8002ZM116.507 35.2838C119.535 36.4454 119.984 39.3438 117.045 38.7557C115.798 38.5062 115.214 39.744 115.525 41.983C115.905 44.7129 115.4 45.3755 113.499 44.6448C110.684 43.5658 110.592 43.1559 111.989 37.9456C113.083 33.8678 112.978 33.9293 116.507 35.2838ZM139.505 40.3758C143.246 45.301 142.124 48.6854 135.891 51.2905C132.662 52.6385 129.016 53.7418 127.787 53.7418C123.92 53.7418 125.262 45.7578 129.843 41.5131C134.936 36.7953 136.633 36.5944 139.505 40.3758ZM191.439 40.0275C192.601 43.0555 188.898 56.982 186.93 56.982C186.155 56.982 185.52 55.9565 185.52 54.7041C185.52 53.2784 184.389 52.7211 182.502 53.2136C177.044 54.641 177.073 47.8526 182.549 42.3799C187.987 36.9444 190.047 36.4 191.439 40.0275ZM121.12 54.7106C122.42 56.0083 120.72 60.2223 118.898 60.2223C118.102 60.2223 117.451 58.7642 117.451 56.982C117.451 53.8244 119.17 52.76 121.12 54.7106ZM174.843 60.7277C177.438 62.6249 177.528 63.3264 175.587 66.4354C174.37 68.3844 172.094 70.3853 170.532 70.881C168.971 71.3752 167.692 72.9386 167.692 74.353C167.692 76.6195 167.323 76.592 164.585 74.1148C162.107 71.8725 160.796 71.67 158.103 73.1103C156.245 74.1051 154.727 75.7673 154.727 76.8042C154.727 78.1521 154.148 78.1052 152.701 76.6389C151.079 74.9929 151.226 74.178 153.448 72.5368C157.309 69.6838 160.25 61.6318 157.95 60.2109C156.981 59.6115 159.719 58.9975 164.036 58.8435C168.454 58.688 173.178 59.511 174.843 60.7277ZM142.166 62.8825C143.725 63.3216 145.014 64.5431 145.027 65.5962C145.043 66.7627 145.737 66.5618 146.802 65.0826C148.255 63.0607 148.388 63.1514 147.586 65.6205C147.056 67.252 146.623 69.2188 146.623 69.99C146.623 70.7611 143.662 71.2731 140.043 71.1289C134.638 70.9134 133.594 70.3594 134.204 68.0312C134.671 66.2426 133.808 64.8347 131.87 64.2191C130.18 63.6828 128.796 62.5066 128.796 61.6042C128.796 60.1008 134.081 60.6062 142.166 62.8825ZM205.701 66.0482C207.09 73.4457 201.946 81.5819 193.465 85.4054C187.026 88.3087 179.614 88.0203 180.253 84.8902C180.476 83.7982 179.52 82.9039 178.131 82.9039C176.742 82.9039 176.055 82.1749 176.606 81.2838C177.157 80.3928 179.374 79.6637 181.533 79.6637C184.368 79.6637 185.74 78.5393 186.475 75.6134C187.034 73.3857 188.142 71.5631 188.936 71.5631C189.732 71.5631 190.382 70.7822 190.382 69.828C190.382 66.7303 198.605 60.3827 202.763 60.2709C203.777 60.2449 205.1 62.8436 205.701 66.0482ZM120.381 68.2176C119.305 69.943 117.796 70.9669 117.029 70.4922C116.263 70.0191 116.956 68.6323 118.569 67.4091C122.48 64.4443 122.682 64.535 120.381 68.2176ZM120.642 77.577C122.3 77.1039 136.899 87.6428 136.899 89.3115C136.899 93.2614 117.386 94.0196 114.209 90.1945C113.099 88.8579 111.5 87.7643 110.654 87.7643C108.269 87.7643 104.485 83.4127 104.485 80.6698C104.485 76.9273 109.248 75.001 114.66 76.5531C117.287 77.3064 119.979 77.7665 120.642 77.577ZM66.9529 80.2712C44.4073 89.54 25.9428 105.603 13.7568 126.545C2.24009 146.336 -0.0304863 155.847 0.000306971 184.161C0.0229967 205.592 0.476762 209.707 3.84619 218.994C13.1522 244.649 27.3965 262.732 50.6957 278.469C73.9122 294.15 95.3233 300 129.504 300C147.819 300 153.283 299.375 165.265 295.903C190.366 288.632 210.667 276.706 225.396 260.578C245.421 238.649 253.58 218.957 254.808 189.571C255.724 167.709 253.077 152.58 245.633 137.108C237.17 119.52 220.448 100.725 213.263 100.725C211.375 100.725 209.834 101.273 209.835 101.94C209.839 102.608 214.159 108.141 219.435 114.235C251.918 151.751 255.312 202.433 227.987 241.979C217.944 256.518 197.163 273.274 179.037 281.454C162.739 288.808 123.058 293.116 104.485 289.547C101.365 288.948 96.9893 288.228 94.7609 287.95C78.1049 285.864 55.0506 273.318 38.3428 257.247C5.51067 225.667 -1.50862 167.2 22.9056 128.682C31.9685 114.384 51.2694 96.7544 65.5818 89.7003C74.6788 85.2175 77.8749 82.7889 78.2622 80.0639C78.8991 75.5778 78.3431 75.5875 66.9529 80.2712ZM150.393 81.7148C149.27 83.5682 146.623 81.4458 146.623 78.6949C146.623 76.7248 147.027 76.6681 148.884 78.3854C150.127 79.5341 150.806 81.0327 150.393 81.7148ZM173.211 79.6556C172.323 80.5434 168.057 81.5997 163.728 82.0064C159.142 82.4357 156.469 82.1441 157.32 81.3065C158.122 80.5159 162.06 79.5843 166.072 79.2392C170.083 78.8925 173.692 78.4826 174.094 78.3271C174.494 78.1716 174.097 78.7694 173.211 79.6556ZM180.28 90.8263C182.41 92.0171 181.564 92.6927 176.107 94.1605C169.908 95.8293 162.592 95.4745 154.018 93.088C150.931 92.2277 150.929 92.1775 153.98 89.9466C157.368 87.4711 175.357 88.0705 180.28 90.8263ZM85.0367 154.189C82.8082 155.932 80.4599 157.374 79.8181 157.394C76.3531 157.501 60.9563 165.836 60.099 168.067C58.7765 171.512 59.7927 172.934 67.6142 178.598C76.5961 185.103 82.2069 184.879 86.5569 177.845C89.7189 172.73 96.3816 155.417 96.3816 152.315C96.3816 149.792 89.1273 150.989 85.0367 154.189ZM157.341 152.273C156.89 153.002 157.597 156.713 158.91 160.524C165.464 179.542 171.55 185.169 181.204 181.137C187.037 178.7 195.719 169.383 194.779 166.567C194.45 165.58 189.862 163.051 184.583 160.947C179.305 158.842 171.866 155.732 168.054 154.035C160.38 150.618 158.55 150.317 157.341 152.273ZM116.389 212.497C106.419 214.592 95.7252 219.898 90.0527 225.57C84.8665 230.754 82.3237 236.977 84.1697 239.963C86.0238 242.964 89.5147 241.807 90.5033 237.867C92.7755 228.82 116.149 219.636 133.56 220.949C145.479 221.849 154.038 226.173 159.895 234.254C165.12 241.467 167.245 242.298 169.859 238.157C171.071 236.235 171.031 234.265 169.72 231.391C167.568 226.669 151.985 214.441 146.4 213.094C139.348 211.391 123.191 211.07 116.389 212.497Z" fill="#37B38A"/>
</svg>
