<svg width="222" height="269" viewBox="0 0 222 269" fill="none" xmlns="http://www.w3.org/2000/svg">
<path fill-rule="evenodd" clip-rule="evenodd" d="M92.4431 1.09661C53.5106 9.10486 28.594 29.1522 19.2166 60.0107C16.2102 69.908 15.9153 73.8465 16.7272 93.2166L17.6495 115.192L8.85553 129.702C-3.34023 149.828 -3.09396 154.637 10.5572 163.071C16.8082 166.932 17.0432 167.554 19.5342 186.824C23.5438 217.838 25.9717 220.352 51.7878 220.221C67.0126 220.143 69.7581 220.522 70.4437 222.8C70.8861 224.268 73.0903 234.459 75.3447 245.443C77.5974 256.427 79.9134 266.177 80.4904 267.111C81.1614 268.194 85.3994 268.42 92.2582 267.733C102.292 266.728 168.771 253.926 181.82 250.485C187.121 249.088 190.654 245.424 189.938 242.065C189.795 241.391 188.936 230.395 188.029 217.632C186.166 191.43 186.435 190.231 197.68 174.436C217.285 146.896 222.848 129.42 221.656 99.1009C220.843 78.4298 218.7 70.1283 209.083 50.3936C199.053 29.81 174.497 10.6553 149.923 4.24126C135.293 0.422641 104.034 -1.28821 92.4431 1.09661ZM109.947 11.1284C113.144 14.3249 112.332 30.3122 108.668 36.3213C105.071 42.2185 102.302 42.8115 96.404 38.9475C91.1011 35.4756 80.4596 36.8591 75.3139 41.692C64.3418 51.9959 68.1991 74.0376 81.9831 79.7956C89.0493 82.7458 93.0621 82.6907 99.1219 79.5574C106.605 75.6902 108.642 78.4266 108.689 92.413C108.736 106.703 110.835 116.193 114.543 118.904C118.076 121.486 128.223 121.585 133.703 119.088C139.247 116.564 142.088 106.477 139.597 98.1661C137.058 89.6912 137.377 86.3344 141.182 81.4983C145.459 76.0628 154.893 75.5832 160.206 80.5327C164.496 84.5279 164.512 84.9087 160.939 98.8433L158.097 109.927L162.775 113.948C167.344 117.876 167.971 117.957 189.99 117.446L212.527 116.922L211.436 123.403C209.441 135.26 201.284 153.571 192.85 165.127C177.593 186.032 177.695 185.664 178.906 215.035L179.966 240.735L173.609 242.446C170.112 243.387 158.989 245.642 148.89 247.459C138.792 249.273 127.247 251.502 123.236 252.411C108.707 255.703 88.4091 258.535 87.4221 257.408C86.8678 256.773 85.1645 249.691 83.6378 241.671C82.1111 233.652 80.5066 225.587 80.0706 223.75C79.4904 221.298 80.4126 219.894 83.5406 218.47C86.6183 217.067 87.6587 215.519 87.2859 212.898C86.7025 208.789 83.2294 208.504 62.2559 210.841C46.8885 212.553 36.3231 210.902 33.3718 206.33C32.1141 204.383 29.8905 194.04 28.4302 183.347C26.9684 172.654 24.97 162.263 23.9863 160.256C23.0041 158.248 19.4078 155.374 15.993 153.869C12.2978 152.238 9.78741 150.015 9.78741 148.37C9.78741 146.851 13.5442 140.105 18.1357 133.379C26.1322 121.668 26.4757 120.717 26.2682 110.936C26.1483 105.317 25.5893 96.7112 25.0269 91.8104C21.6397 62.3339 37.9487 33.7922 66.2266 19.7053C83.4303 11.1349 105.602 6.78485 109.947 11.1284ZM139.443 11.6436C158.3 15.4557 176.277 25.0371 187.301 37.1508C203.566 55.0255 209.838 69.2972 212.365 94.1757C213.227 102.655 213.107 107.908 212.023 109.227C210.863 110.638 204.578 111.252 191.306 111.252C167.93 111.252 167.491 110.937 170.075 96.1118C171.548 87.6564 171.442 84.7353 169.504 80.0969C166.467 72.8274 157.788 68.4158 148.881 69.6099C134.939 71.4795 127.953 81.7105 131.153 95.569C134.494 110.042 133.338 112.872 124.087 112.872C119.207 112.872 118.379 110.379 116.87 91.1526C115.193 69.767 113.313 68.4758 90.8223 73.2486C88.0477 73.8384 85.299 72.91 82.1014 70.3065C78.0707 67.0225 77.4547 65.4364 77.5909 58.6886C77.6881 53.8121 78.7756 49.7375 80.4838 47.85C83.7593 44.2323 91.9616 43.952 96.3991 47.3089C100.248 50.2187 108.776 50.4098 112.101 47.6621C117.551 43.1549 119.185 37.5525 119.185 23.3635C119.185 6.84317 118.282 7.36648 139.443 11.6436ZM116.256 18.4692C115.844 20.0455 115.481 19.148 115.449 16.4748C115.416 13.8016 115.752 12.512 116.196 13.6088C116.64 14.7056 116.668 16.8928 116.256 18.4692Z" fill="#37B38A"/>
</svg>
