<svg width="252" height="232" viewBox="0 0 252 232" fill="none" xmlns="http://www.w3.org/2000/svg">
<path fill-rule="evenodd" clip-rule="evenodd" d="M87.3871 2.36984C82.4845 3.55415 71.7247 7.97708 63.4753 12.1975C30.1181 29.2687 9.29699 57.556 2.36364 95.2205C-0.772407 112.253 -0.785357 122.905 2.31018 137.619C10.0101 174.208 30.5865 201.581 63.1058 218.494C80.4343 227.505 96.9688 231.544 116.414 231.513C139.828 231.477 154.73 227.268 172.981 215.54L181.488 210.074L188.669 212.815C193.052 214.489 200.611 215.576 208.061 215.605C218.31 215.646 221.412 214.983 227.399 211.477C240.391 203.866 251.031 186.851 251.061 173.639C251.076 167.248 250.664 166.603 245.068 164.267C241.764 162.886 233.587 161.6 226.899 161.409L214.737 161.062L214.542 151.341C214.273 137.99 211.006 123.895 207.427 120.656C204.617 118.114 203.662 118.469 190.515 126.947C171.955 138.917 167.8 145.062 168.701 159.21C169.219 167.356 170.304 170.82 173.754 175.34C179.047 182.278 179.279 187.671 174.694 197.141C170.615 205.565 159.871 213.923 148.197 217.755C136.895 221.464 112.847 222.69 97.5876 220.334C69.321 215.97 38.8358 194.777 23.9838 169.163C21.4004 164.707 17.4247 155.23 15.1493 148.101C9.72481 131.114 9.01499 105.176 13.5076 88.1568C25.4197 43.0316 64.6033 11.1412 110.482 9.23105C117.391 8.94267 123.042 9.20675 123.042 9.81592C123.042 10.4267 119.446 13.5649 115.049 16.7905C96.8504 30.1452 84.0226 49.1978 76.817 73.5757C72.9711 86.5869 72.8834 110.992 76.637 122.989C87.1926 156.717 106.628 175.577 145.732 190.04C161.098 195.723 164.67 196.321 165.792 193.398C166.446 191.695 164.382 189.429 159.161 186.119C154.991 183.477 150.612 181.314 149.429 181.314C146.095 181.314 123.042 171.305 123.042 169.858C123.042 169.15 121.696 168.144 120.051 167.622C116.159 166.388 99.6542 149.665 95.3625 142.611C85.7275 126.772 81.8201 107.734 84.1005 87.7485C87.8475 54.9087 106.62 30.116 142.373 10.7945C145.259 9.23429 147.342 7.1168 146.998 6.08802C145.048 0.239389 106.241 -2.18108 87.3871 2.36984ZM182.164 39.4787C177.248 49.862 170.787 55.803 161.764 58.2316C152.941 60.6067 153.607 65.1139 162.965 66.3662C172.497 67.6412 178.09 71.9734 181.924 81.0445C183.765 85.401 185.875 88.9669 186.611 88.9669C187.349 88.9669 188.705 86.9855 189.626 84.5634C192.279 77.5871 202.333 66.2852 205.888 66.2852C207.654 66.2852 211.392 65.1009 214.191 63.6541C219.019 61.1575 219.124 60.908 216.231 58.7938C214.554 57.5673 210.896 56.5645 208.102 56.5645C201.705 56.5645 197.418 52.1318 192.026 39.942C189.763 34.8273 187.559 30.6426 187.128 30.6426C186.697 30.6426 184.464 34.6183 182.164 39.4787ZM194.932 55.5584L200.654 60.2243L194.018 67.9248L187.383 75.6268L181.9 70.1459C178.885 67.1309 175.347 64.6651 174.041 64.6651C172.733 64.6651 171.663 63.5715 171.663 62.2349C171.663 60.8983 172.369 59.8047 173.231 59.8047C176.641 59.8047 186.253 48.2484 186.415 43.9551C186.564 40.0295 186.725 40.1672 187.896 45.2236C188.712 48.7393 191.384 52.6665 194.932 55.5584ZM138.257 91.7162C136.804 95.1055 135.113 98.9128 134.501 100.178C133.89 101.442 130.59 103.446 127.17 104.629C119.728 107.205 116.252 109.84 117.544 111.927C118.064 112.771 120.062 113.282 121.982 113.063C129.002 112.263 132.995 115.061 136.95 123.55C139.089 128.143 140.846 132.958 140.854 134.249C140.883 138.476 143.564 133.779 145.744 125.682C147.575 118.878 148.76 117.403 154.719 114.51C163.122 110.429 163.401 106.228 155.319 105.44C147.852 104.714 146.269 103.054 145.005 94.6227C143.577 85.0996 141.481 84.1972 138.257 91.7162ZM204.077 144.174V157.067L196.656 164.174C186.747 173.665 183.644 174.333 179.673 167.823C174.339 159.078 176.273 149.256 184.88 141.386C191.216 135.592 201.131 129.462 202.65 130.398C203.434 130.884 204.077 137.083 204.077 144.174ZM239.935 171.593C240.047 172.484 240.268 174.125 240.425 175.238C241.462 182.545 230.942 198.628 221.685 203.887C215.617 207.334 209.858 207.986 201.039 206.223C195.086 205.032 194.499 203.168 199.62 201.727C203.069 200.758 203.108 200.58 200.356 198.469C198.753 197.243 196.087 196.593 194.428 197.026C189.927 198.202 185.341 192.757 185.969 186.984C186.498 182.14 189.491 177.093 189.491 181.046C189.491 183.574 193.478 181.492 199.432 175.852C203.975 171.551 208.299 170.702 227.983 170.245C234.807 170.086 239.817 170.652 239.935 171.593Z" fill="#37B38A"/>
</svg>
